<?xml version="1.0"?>
<svg xmlns="http://www.w3.org/2000/svg" id="Capa_1" enable-background="new 0 0 512 512" height="512px" viewBox="0 0 512 512" width="512px" class=""><g><path d="m414.5 142.5c16.57 0 30 13.43 30 30v150h-60v-150c0-16.57 13.43-30 30-30z" fill="#ff8a7d" data-original="#FF8A7D" class=""/><path d="m444.5 82.5c-16.57 0-30 13.43-30 30v150h60v-150c0-16.57-13.43-30-30-30z" fill="#ffa786" data-original="#FFA786" class=""/><path d="m474.256 52.501c-4.42.035-8.615 1.031-12.386 2.789l-13.15 280.93-24.22 113.28 74.139-130.67c3.841-6.771 5.861-14.422 5.861-22.207v-213.485c0-16.636-13.609-30.77-30.244-30.637z" fill="#ffa786" data-original="#FFA786" class=""/><path d="m474.5 82.5v218.257c0 5.124-.875 10.21-2.588 15.04l-47.412 133.703 15 55h-168.412v-30l32.412-98.57 141-113.43v-180c0-12.06 7.11-22.45 17.37-27.21 7.46 4.76 12.63 15.16 12.63 27.21z" fill="#ffc38f" data-original="#FFC38F" class=""/><path d="m393.293 241.287c11.71-11.72 30.71-11.72 42.42 0 5.86 5.85 8.79 13.53 8.79 21.21s-2.93 15.36-8.79 21.21l-104.625 104.635v26.158c0 33-27 60-60 60v-86.088c0-16.57 6.68-31.6 17.53-42.46z" fill="#ffeab0" data-original="#FFEAB0"/><path d="m97.5 142.5c-16.57 0-30 13.43-30 30v150h60v-150c0-16.57-13.43-30-30-30z" fill="#ff8a7d" data-original="#FF8A7D" class=""/><path d="m67.5 82.5c-16.57 0-30 13.43-30 30v150h60v-150c0-16.57-13.43-30-30-30z" fill="#ffa786" data-original="#FFA786" class=""/><path d="m240.912 474.5v30h-30l-60-120.268z" fill="#ffa786" data-original="#FFA786" class=""/><path d="m223.382 345.952-104.669-104.665c-6.37-6.38-14.9-9.28-23.24-8.72l115.439 233.843c8.84 5.14 19.09 8.09 30 8.09v-86.088c0-16.57-6.68-31.6-17.53-42.46z" fill="#ffc38f" data-original="#FFC38F" class=""/><path d="m203.5 381-136-118.5v-179.377c0-16.348-12.819-30.166-29.161-30.612-16.953-.462-30.839 13.14-30.839 29.989v214.123c0 7.785 2.019 15.436 5.861 22.207l74.139 130.67-15 55h138.412v-38.09z" fill="#ffc38f" data-original="#FFC38F" class=""/><path d="m210.912 388.412v77.998c-17.9-10.41-30-29.82-30-51.91v-26.158l-104.625-104.635c-5.86-5.85-8.79-13.53-8.79-21.21s2.93-15.36 8.79-21.21c5.33-5.34 12.19-8.25 19.18-8.72 5.77.47 11.44 3.38 15.85 8.72l85.115 104.665c8.97 10.86 14.48 25.89 14.48 42.46z" fill="#ffeab0" data-original="#FFEAB0"/><path d="m309.5 7.5c-2.382 0-4.734.126-7.059.344l-46.441 234.656 106.533-106.73c13.572-13.598 21.967-32.382 21.967-53.131 0-41.498-33.579-75.139-75-75.139z" fill="#be437c" data-original="#BE437C" class="active-path" style="fill:#D98C0C" data-old_color="#be437c"/><path d="m354.5 82.639c0-39.103-22.856-71.217-52.059-74.795-18.128 1.698-34.38 9.853-46.441 22.155-13.608-13.881-32.546-22.499-53.5-22.499-41.421 0-75 33.641-75 75.139 0 20.749 8.395 39.534 21.967 53.131l106.533 106.73 81.661-106.73c10.404-13.598 16.839-32.382 16.839-53.131z" fill="#fa4087" data-original="#FA4087" class="" style="fill:#FCA311" data-old_color="#fa4087"/><path d="m392 82.639c0-45.567-37.009-82.639-82.5-82.639-19.851 0-38.588 6.959-53.5 19.738-14.912-12.779-33.649-19.738-53.5-19.738-45.491 0-82.5 37.072-82.5 82.639 0 22.071 8.58 42.822 24.159 58.43l106.533 106.73c1.407 1.41 3.316 2.202 5.308 2.202s3.901-.792 5.308-2.202l106.533-106.73c15.579-15.609 24.159-36.36 24.159-58.43zm-136 149.245-101.225-101.412c-12.752-12.776-19.775-29.764-19.775-47.833 0-37.296 30.28-67.639 67.5-67.639 18.245 0 35.342 7.191 48.145 20.249 1.411 1.439 3.341 2.25 5.355 2.25s3.945-.811 5.355-2.25c12.803-13.058 29.9-20.249 48.145-20.249 37.22 0 67.5 30.343 67.5 67.639 0 18.069-7.023 35.057-19.775 47.833z" data-original="#000000" class="" style="fill:#14213D" data-old_color="#000000"/><path d="m124.458 236.425c-5.494-5.494-12.313-8.975-19.458-10.426v-74.709c8.729 3.096 15 11.432 15 21.21v38.172c0 4.142 3.358 7.5 7.5 7.5s7.5-3.358 7.5-7.5v-38.172c0-18.11-12.904-33.261-30-36.745v-23.255c0-18.371-13.282-33.687-30.745-36.879-3.41-16.982-18.124-30.125-35.706-30.607-10.223-.283-19.88 3.487-27.198 10.606-7.32 7.123-11.351 16.669-11.351 26.88v214.123c0 9.064 2.364 18.023 6.838 25.908l72.612 127.98-14.186 52.016c-.615 2.255-.144 4.668 1.275 6.526 1.419 1.857 3.624 2.947 5.961 2.947h168.412c4.142 0 7.5-3.358 7.5-7.5v-116.088c0-18.075-7.007-35.037-19.73-47.763zm-34.458-123.925v113.423c-5.348 1.036-10.49 3.225-15 6.584v-141.217c8.729 3.096 15 11.432 15 21.21zm143.412 384.5h-151.093l12.417-45.527c.521-1.911.265-3.951-.712-5.674l-74.14-130.67c-3.195-5.632-4.884-12.031-4.884-18.506v-214.123c0-6.127 2.419-11.854 6.812-16.128 4.39-4.272 10.194-6.533 16.326-6.363 12.055.33 21.862 10.699 21.862 23.115v179.876c0 .129.003.257.01.385.219 9.687 4.084 18.742 10.974 25.632l104.625 104.625c2.929 2.929 7.678 2.929 10.606 0 2.929-2.929 2.929-7.678 0-10.606l-104.625-104.626c-4.24-4.241-6.572-9.849-6.59-15.832v-.143c0-.083.001-.165.002-.248.084-6.125 2.586-11.822 7.045-16.043 8.758-8.29 23.025-7.893 31.804.886l104.224 104.224c9.89 9.892 15.337 23.088 15.337 37.157z" data-original="#000000" class="" style="fill:#14213D" data-old_color="#000000"/><path d="m500.649 55.621c-7.318-7.12-16.975-10.893-27.198-10.606-17.582.482-32.297 13.625-35.706 30.607-17.463 3.191-30.745 18.507-30.745 36.878v23.255c-17.096 3.484-30 18.635-30 36.745v38.172c0 4.142 3.358 7.5 7.5 7.5s7.5-3.358 7.5-7.5v-38.172c0-9.778 6.271-18.114 15-21.21v74.708c-7.144 1.451-13.964 4.932-19.458 10.427l-104.224 104.224c-12.723 12.725-19.729 29.687-19.729 47.762v116.089c0 4.142 3.358 7.5 7.5 7.5h168.411c2.337 0 4.542-1.09 5.96-2.948 1.419-1.857 1.89-4.271 1.275-6.526l-14.186-52.016 72.613-127.98c4.473-7.885 6.837-16.843 6.837-25.908v-214.122c.001-10.211-4.03-19.757-11.35-26.879zm-78.649 56.879c0-9.778 6.271-18.114 15-21.21v141.216c-4.51-3.36-9.652-5.548-15-6.584zm75 184.123c0 6.475-1.689 12.874-4.884 18.506l-74.139 130.67c-.978 1.723-1.233 3.763-.712 5.674l12.416 45.527h-151.093v-108.588c0-14.069 5.447-27.265 15.336-37.156l104.224-104.224c8.78-8.778 23.047-9.175 31.804-.886 4.459 4.221 6.961 9.918 7.045 16.043.001.083.002.165.002.248v.143c-.018 5.982-2.35 11.591-6.59 15.832l-104.624 104.623c-2.929 2.929-2.929 7.678 0 10.606 2.929 2.929 7.678 2.929 10.606 0l104.625-104.625c6.889-6.89 10.755-15.945 10.974-25.632.006-.127.01-.256.01-.385v-179.875c0-12.416 9.807-22.785 21.862-23.115 6.142-.168 11.936 2.092 16.326 6.363 4.393 4.274 6.812 10.001 6.812 16.128z" data-original="#000000" class="" style="fill:#14213D" data-old_color="#000000"/></g> </svg>
